<mxfile host="app.diagrams.net" agent="Mozilla/5.0 (Windows NT 10.0; Win64; x64) AppleWebKit/537.36 (KHTML, like Gecko) Chrome/130.0.0.0 Safari/537.36" version="24.8.6">
  <diagram name="Trang-1" id="_H3atX5mkr6x4GcEw6Bt">
    <mxGraphModel grid="1" page="1" gridSize="10" guides="1" tooltips="1" connect="1" arrows="1" fold="1" pageScale="1" pageWidth="827" pageHeight="1169" math="0" shadow="0">
      <root>
        <mxCell id="0" />
        <mxCell id="1" parent="0" />
        <mxCell id="RpmkTVaumhI-PUo0xeob-3" value="" style="edgeStyle=orthogonalEdgeStyle;rounded=0;orthogonalLoop=1;jettySize=auto;html=1;" edge="1" parent="1" source="RpmkTVaumhI-PUo0xeob-1" target="RpmkTVaumhI-PUo0xeob-2">
          <mxGeometry relative="1" as="geometry" />
        </mxCell>
        <mxCell id="RpmkTVaumhI-PUo0xeob-1" value="Bắt đầu" style="ellipse;whiteSpace=wrap;html=1;" vertex="1" parent="1">
          <mxGeometry x="390" y="50" width="120" height="80" as="geometry" />
        </mxCell>
        <mxCell id="RpmkTVaumhI-PUo0xeob-4" style="edgeStyle=orthogonalEdgeStyle;rounded=0;orthogonalLoop=1;jettySize=auto;html=1;" edge="1" parent="1" source="RpmkTVaumhI-PUo0xeob-2" target="RpmkTVaumhI-PUo0xeob-5">
          <mxGeometry relative="1" as="geometry">
            <mxPoint x="200" y="350" as="targetPoint" />
            <Array as="points">
              <mxPoint x="450" y="280" />
              <mxPoint x="201" y="280" />
            </Array>
          </mxGeometry>
        </mxCell>
        <mxCell id="RpmkTVaumhI-PUo0xeob-6" style="edgeStyle=orthogonalEdgeStyle;rounded=0;orthogonalLoop=1;jettySize=auto;html=1;" edge="1" parent="1" source="RpmkTVaumhI-PUo0xeob-2" target="RpmkTVaumhI-PUo0xeob-7">
          <mxGeometry relative="1" as="geometry">
            <mxPoint x="320" y="320" as="targetPoint" />
            <Array as="points">
              <mxPoint x="450" y="280" />
              <mxPoint x="370" y="280" />
            </Array>
          </mxGeometry>
        </mxCell>
        <mxCell id="RpmkTVaumhI-PUo0xeob-13" style="edgeStyle=orthogonalEdgeStyle;rounded=0;orthogonalLoop=1;jettySize=auto;html=1;" edge="1" parent="1" source="RpmkTVaumhI-PUo0xeob-2" target="RpmkTVaumhI-PUo0xeob-12">
          <mxGeometry relative="1" as="geometry" />
        </mxCell>
        <mxCell id="RpmkTVaumhI-PUo0xeob-15" style="edgeStyle=orthogonalEdgeStyle;rounded=0;orthogonalLoop=1;jettySize=auto;html=1;entryX=0.5;entryY=0;entryDx=0;entryDy=0;" edge="1" parent="1" source="RpmkTVaumhI-PUo0xeob-2" target="RpmkTVaumhI-PUo0xeob-14">
          <mxGeometry relative="1" as="geometry">
            <Array as="points">
              <mxPoint x="450" y="280" />
              <mxPoint x="700" y="280" />
            </Array>
          </mxGeometry>
        </mxCell>
        <mxCell id="RpmkTVaumhI-PUo0xeob-2" value="nhập a,b, phép&amp;nbsp;&lt;br&gt;tính +,-,*,/" style="shape=parallelogram;perimeter=parallelogramPerimeter;whiteSpace=wrap;html=1;fixedSize=1;" vertex="1" parent="1">
          <mxGeometry x="390" y="180" width="120" height="60" as="geometry" />
        </mxCell>
        <mxCell id="RpmkTVaumhI-PUo0xeob-9" value="" style="edgeStyle=orthogonalEdgeStyle;rounded=0;orthogonalLoop=1;jettySize=auto;html=1;" edge="1" parent="1" source="RpmkTVaumhI-PUo0xeob-5" target="RpmkTVaumhI-PUo0xeob-8">
          <mxGeometry relative="1" as="geometry" />
        </mxCell>
        <mxCell id="RpmkTVaumhI-PUo0xeob-5" value="a+b" style="shape=parallelogram;perimeter=parallelogramPerimeter;whiteSpace=wrap;html=1;fixedSize=1;" vertex="1" parent="1">
          <mxGeometry x="140" y="320" width="120" height="60" as="geometry" />
        </mxCell>
        <mxCell id="RpmkTVaumhI-PUo0xeob-11" value="" style="edgeStyle=orthogonalEdgeStyle;rounded=0;orthogonalLoop=1;jettySize=auto;html=1;" edge="1" parent="1" source="RpmkTVaumhI-PUo0xeob-7" target="RpmkTVaumhI-PUo0xeob-10">
          <mxGeometry relative="1" as="geometry" />
        </mxCell>
        <mxCell id="RpmkTVaumhI-PUo0xeob-7" value="a-b" style="shape=parallelogram;perimeter=parallelogramPerimeter;whiteSpace=wrap;html=1;fixedSize=1;" vertex="1" parent="1">
          <mxGeometry x="310" y="320" width="120" height="60" as="geometry" />
        </mxCell>
        <mxCell id="RpmkTVaumhI-PUo0xeob-20" style="edgeStyle=orthogonalEdgeStyle;rounded=0;orthogonalLoop=1;jettySize=auto;html=1;" edge="1" parent="1" source="RpmkTVaumhI-PUo0xeob-8">
          <mxGeometry relative="1" as="geometry">
            <mxPoint x="460" y="680" as="targetPoint" />
            <Array as="points">
              <mxPoint x="200" y="660" />
              <mxPoint x="461" y="660" />
            </Array>
          </mxGeometry>
        </mxCell>
        <mxCell id="RpmkTVaumhI-PUo0xeob-8" value="tổng" style="rounded=0;whiteSpace=wrap;html=1;" vertex="1" parent="1">
          <mxGeometry x="140" y="420" width="120" height="60" as="geometry" />
        </mxCell>
        <mxCell id="RpmkTVaumhI-PUo0xeob-22" style="edgeStyle=orthogonalEdgeStyle;rounded=0;orthogonalLoop=1;jettySize=auto;html=1;" edge="1" parent="1" source="RpmkTVaumhI-PUo0xeob-10">
          <mxGeometry relative="1" as="geometry">
            <mxPoint x="370" y="660" as="targetPoint" />
          </mxGeometry>
        </mxCell>
        <mxCell id="RpmkTVaumhI-PUo0xeob-10" value="hiệu" style="whiteSpace=wrap;html=1;" vertex="1" parent="1">
          <mxGeometry x="310" y="420" width="120" height="60" as="geometry" />
        </mxCell>
        <mxCell id="RpmkTVaumhI-PUo0xeob-17" value="" style="edgeStyle=orthogonalEdgeStyle;rounded=0;orthogonalLoop=1;jettySize=auto;html=1;" edge="1" parent="1" source="RpmkTVaumhI-PUo0xeob-12" target="RpmkTVaumhI-PUo0xeob-16">
          <mxGeometry relative="1" as="geometry" />
        </mxCell>
        <mxCell id="RpmkTVaumhI-PUo0xeob-12" value="a*b" style="shape=parallelogram;perimeter=parallelogramPerimeter;whiteSpace=wrap;html=1;fixedSize=1;" vertex="1" parent="1">
          <mxGeometry x="480" y="320" width="120" height="60" as="geometry" />
        </mxCell>
        <mxCell id="RpmkTVaumhI-PUo0xeob-19" value="" style="edgeStyle=orthogonalEdgeStyle;rounded=0;orthogonalLoop=1;jettySize=auto;html=1;" edge="1" parent="1" source="RpmkTVaumhI-PUo0xeob-14" target="RpmkTVaumhI-PUo0xeob-18">
          <mxGeometry relative="1" as="geometry" />
        </mxCell>
        <mxCell id="RpmkTVaumhI-PUo0xeob-14" value="a/b" style="shape=parallelogram;perimeter=parallelogramPerimeter;whiteSpace=wrap;html=1;fixedSize=1;" vertex="1" parent="1">
          <mxGeometry x="640" y="320" width="120" height="60" as="geometry" />
        </mxCell>
        <mxCell id="RpmkTVaumhI-PUo0xeob-24" style="edgeStyle=orthogonalEdgeStyle;rounded=0;orthogonalLoop=1;jettySize=auto;html=1;" edge="1" parent="1" source="RpmkTVaumhI-PUo0xeob-16">
          <mxGeometry relative="1" as="geometry">
            <mxPoint x="530" y="660" as="targetPoint" />
            <Array as="points">
              <mxPoint x="540" y="660" />
            </Array>
          </mxGeometry>
        </mxCell>
        <mxCell id="RpmkTVaumhI-PUo0xeob-25" style="edgeStyle=orthogonalEdgeStyle;rounded=0;orthogonalLoop=1;jettySize=auto;html=1;" edge="1" parent="1" source="RpmkTVaumhI-PUo0xeob-16">
          <mxGeometry relative="1" as="geometry">
            <mxPoint x="540" y="660" as="targetPoint" />
          </mxGeometry>
        </mxCell>
        <mxCell id="RpmkTVaumhI-PUo0xeob-16" value="tích" style="whiteSpace=wrap;html=1;" vertex="1" parent="1">
          <mxGeometry x="480" y="420" width="120" height="60" as="geometry" />
        </mxCell>
        <mxCell id="RpmkTVaumhI-PUo0xeob-23" style="edgeStyle=orthogonalEdgeStyle;rounded=0;orthogonalLoop=1;jettySize=auto;html=1;entryX=0.5;entryY=0;entryDx=0;entryDy=0;" edge="1" parent="1" source="RpmkTVaumhI-PUo0xeob-18" target="RpmkTVaumhI-PUo0xeob-21">
          <mxGeometry relative="1" as="geometry">
            <Array as="points">
              <mxPoint x="700" y="660" />
              <mxPoint x="460" y="660" />
            </Array>
          </mxGeometry>
        </mxCell>
        <mxCell id="RpmkTVaumhI-PUo0xeob-18" value="" style="whiteSpace=wrap;html=1;" vertex="1" parent="1">
          <mxGeometry x="640" y="420" width="120" height="60" as="geometry" />
        </mxCell>
        <mxCell id="RpmkTVaumhI-PUo0xeob-21" value="" style="ellipse;whiteSpace=wrap;html=1;" vertex="1" parent="1">
          <mxGeometry x="400" y="680" width="120" height="80" as="geometry" />
        </mxCell>
      </root>
    </mxGraphModel>
  </diagram>
</mxfile>
